
<!-- Generator: visioncortex VTracer 0.6.4 -->
<svg version="1.1" xmlns="http://www.w3.org/2000/svg" viewBox="0 0 500 500" preserveAspectRatio="xMidYMid meet">
<path d="M0 0 C0.745 0.006 1.489 0.011 2.257 0.017 C15.725 0.31 29.086 4.869 38.957 14.312 C50.868 27.151 58.034 44.341 61.812 61.312 C62.036 62.247 62.259 63.182 62.488 64.145 C67.177 87.97 64.89 114.634 52.188 135.562 C49.049 140.725 49.049 140.725 46.812 146.312 C48.156 148.409 48.156 148.409 49.812 150.312 C49.812 151.632 49.812 152.952 49.812 154.312 C50.277 154.024 50.741 153.735 51.219 153.438 C58.869 149.327 66.385 149.94 74.812 150.312 C75.04 152.363 75.268 154.414 75.496 156.465 C75.631 158.324 75.631 158.324 76.812 159.312 C77.287 158.405 77.761 157.498 78.25 156.562 C81.117 152.338 84.89 150.426 89.812 149.312 C94.799 149.365 99.218 150.506 103.25 153.5 C106.627 157.206 108.642 160.402 108.941 165.516 C108.625 171.148 106.876 175.35 102.812 179.312 C100 180.75 100 180.75 97.812 181.312 C98.143 181.972 98.472 182.632 98.812 183.312 C100.708 183.778 100.708 183.778 102.875 183.938 C104.824 184.123 104.824 184.123 106.812 184.312 C107.143 185.632 107.472 186.952 107.812 188.312 C103.578 190.43 98.97 189.562 94.625 188.125 C90.855 186.59 89.283 184.555 86.812 181.312 C84.83 179.971 82.808 178.782 80.715 177.621 C78.443 176.058 77.201 174.7 75.812 172.312 C75.52 169.734 75.52 169.734 75.625 167.062 C75.666 165.724 75.666 165.724 75.707 164.359 C75.742 163.684 75.777 163.008 75.812 162.312 C75.049 162.251 74.286 162.189 73.5 162.125 C70.812 161.312 70.812 161.312 69.375 158.812 C68.004 156.032 68.004 156.032 64.875 155.312 C61.823 155.07 61.823 155.07 59.5 156.562 C55.97 160.223 56.478 164.91 56.535 169.703 C56.642 172.459 56.642 172.459 58.438 175 C61.519 176.703 63.337 176.819 66.812 176.312 C68.983 174.873 68.983 174.873 70.812 173.312 C71.803 173.312 72.793 173.312 73.812 173.312 C73.812 174.963 73.812 176.613 73.812 178.312 C67.648 181.996 63.227 182.793 56.203 181.164 C53.295 180.128 51.683 178.753 49.812 176.312 C49.153 176.312 48.493 176.312 47.812 176.312 C47.132 177.055 46.451 177.798 45.75 178.562 C41.177 183.256 35.372 185.507 28.875 185.875 C24.925 185.749 22.83 184.837 19.562 182.688 C13.913 179.422 8.667 180.448 2.453 181.164 C1.43 181.27 0.406 181.376 -0.648 181.486 C-3.163 181.748 -5.675 182.024 -8.188 182.312 C-8.183 182.872 -8.179 183.431 -8.174 184.007 C-8.13 189.814 -8.1 195.622 -8.078 201.429 C-8.068 203.598 -8.054 205.767 -8.037 207.936 C-8.012 211.048 -8.001 214.161 -7.992 217.273 C-7.982 218.247 -7.972 219.221 -7.961 220.225 C-7.961 221.126 -7.961 222.027 -7.96 222.955 C-7.956 223.75 -7.952 224.545 -7.947 225.364 C-8.188 227.312 -8.188 227.312 -10.188 229.312 C-13.32 229.571 -13.32 229.571 -17.312 229.578 C-18.015 229.58 -18.718 229.582 -19.442 229.584 C-20.928 229.585 -22.414 229.582 -23.9 229.573 C-26.179 229.563 -28.456 229.573 -30.734 229.586 C-32.177 229.585 -33.62 229.582 -35.062 229.578 C-36.38 229.576 -37.697 229.574 -39.055 229.571 C-42.188 229.312 -42.188 229.312 -44.188 227.312 C-44.671 223.374 -44.558 219.402 -44.562 215.438 C-44.587 214.335 -44.611 213.233 -44.637 212.098 C-44.641 211.037 -44.644 209.976 -44.648 208.883 C-44.657 207.911 -44.665 206.939 -44.673 205.938 C-44.05 202.569 -42.808 201.45 -40.188 199.312 C-38.159 198.147 -36.092 197.047 -34 196 C-24.246 191.189 -24.246 191.189 -17.188 183.312 C-18.187 183.949 -18.187 183.949 -19.207 184.598 C-21.158 185.839 -23.113 187.076 -25.07 188.309 C-27.007 189.554 -28.924 190.832 -30.805 192.16 C-47.172 203.478 -68.492 205.69 -87.848 202.699 C-103.844 199.623 -117.709 191.791 -129.188 180.312 C-129.188 179.322 -129.188 178.333 -129.188 177.312 C-126.208 177.047 -124.634 177.025 -122.082 178.668 C-121.395 179.273 -120.708 179.877 -120 180.5 C-105.528 192.325 -86.488 195.855 -68.188 194.312 C-60.166 193.059 -52.581 190.629 -45.188 187.312 C-45.188 185.663 -45.188 184.012 -45.188 182.312 C-45.784 182.315 -46.381 182.317 -46.996 182.319 C-53.193 182.341 -59.389 182.356 -65.585 182.367 C-67.9 182.372 -70.214 182.379 -72.529 182.388 C-75.85 182.4 -79.171 182.406 -82.492 182.41 C-84.052 182.418 -84.052 182.418 -85.643 182.426 C-86.603 182.426 -87.564 182.426 -88.554 182.426 C-89.827 182.429 -89.827 182.429 -91.125 182.433 C-93.188 182.312 -93.188 182.312 -95.188 181.312 C-95.188 169.102 -95.188 156.892 -95.188 144.312 C-78.688 144.312 -62.188 144.312 -45.188 144.312 C-45.227 129.264 -45.227 129.264 -45.278 114.215 C-45.281 112.334 -45.283 110.452 -45.285 108.57 C-45.29 107.587 -45.295 106.604 -45.301 105.592 C-45.301 104.191 -45.301 104.191 -45.301 102.762 C-45.303 101.949 -45.305 101.137 -45.308 100.299 C-45.188 98.312 -45.188 98.312 -44.188 96.312 C-32.308 96.312 -20.428 96.312 -8.188 96.312 C-7.403 99.45 -7.065 101.497 -7.074 104.622 C-7.074 105.883 -7.074 105.883 -7.074 107.169 C-7.079 108.067 -7.085 108.965 -7.09 109.891 C-7.091 110.817 -7.093 111.744 -7.094 112.698 C-7.1 115.653 -7.112 118.608 -7.125 121.562 C-7.13 123.568 -7.135 125.573 -7.139 127.578 C-7.15 132.49 -7.167 137.401 -7.188 142.312 C-6.528 142.312 -5.868 142.312 -5.188 142.312 C1.522 123.741 -1.165 102.734 -9.312 85.188 C-12.508 79.11 -16.371 73.936 -20.625 68.594 C-29.525 57.34 -37.207 45.051 -36.574 30.145 C-35.482 22.146 -33.497 13.702 -27.188 8.312 C-18.468 3.183 -10.217 -0.082 0 0 Z M-25.188 13.312 C-27.319 15.807 -28.806 18.345 -30.188 21.312 C-30.837 22.674 -30.837 22.674 -31.5 24.062 C-33.41 33.092 -32.7 41.225 -28.188 49.312 C-25.685 53.111 -22.958 56.706 -20.188 60.312 C-18.807 62.205 -17.432 64.1 -16.062 66 C-14.29 68.452 -12.524 70.892 -10.633 73.254 C2.301 89.439 7.838 108.722 6.812 129.312 C6.278 134.003 5.563 138.653 4.812 143.312 C4.475 145.645 4.141 147.978 3.812 150.312 C5.132 150.643 6.452 150.972 7.812 151.312 C8.142 150.322 8.472 149.333 8.812 148.312 C10.621 147.285 10.621 147.285 12.812 146.312 C14.865 145.048 16.886 143.743 18.91 142.434 C22.154 140.522 24.815 140.176 28.5 140.188 C29.389 140.181 30.279 140.175 31.195 140.168 C33.649 140.303 35.538 140.81 37.875 141.5 C42.602 141.275 43.229 140.562 46.375 137.188 C60.103 118.637 61.755 92.413 58.625 70.375 C55.23 48.712 47.236 26.526 29.25 12.812 C13.677 2.191 -10.065 1.496 -25.188 13.312 Z M19.812 148.312 C19.482 148.972 19.153 149.632 18.812 150.312 C19.472 150.003 20.132 149.694 20.812 149.375 C24.516 148.063 27.907 147.753 31.812 147.312 C32.803 146.982 33.793 146.653 34.812 146.312 C33.252 144.752 31.723 145.105 29.562 145.062 C25.515 145.101 23.034 145.695 19.812 148.312 Z M16.812 150.312 C15.455 151.871 15.455 151.871 14.188 153.812 C13.741 154.462 13.295 155.112 12.836 155.781 C12.498 156.287 12.16 156.792 11.812 157.312 C12.472 157.972 13.132 158.632 13.812 159.312 C15.462 156.343 17.113 153.373 18.812 150.312 C18.153 150.312 17.493 150.312 16.812 150.312 Z M42.812 152.312 C43.812 154.312 43.812 154.312 43.812 154.312 Z M43.812 154.312 C44.812 156.312 44.812 156.312 44.812 156.312 Z M87.562 156.25 C84.549 161.523 84.452 166.279 85.5 172.188 C86.874 175.458 87.614 176.807 90.812 178.312 C93.379 178.157 94.513 177.556 96.5 175.938 C99.649 172.039 99.276 167.059 98.812 162.312 C97.948 159.45 96.967 156.467 94.812 154.312 C91.387 153.757 90.228 153.955 87.562 156.25 Z M44.812 157.312 C44.482 161.273 44.153 165.232 43.812 169.312 C46.955 166.769 46.955 166.769 47.105 164.27 C47.053 163.208 47.053 163.208 47 162.125 C46.938 160.867 46.876 159.609 46.812 158.312 C46.153 157.982 45.493 157.653 44.812 157.312 Z M-4.188 165.312 C-3.188 168.312 -3.188 168.312 -3.188 168.312 Z M13.812 168.312 C14.143 169.963 14.472 171.613 14.812 173.312 C15.803 172.982 16.793 172.653 17.812 172.312 C16.493 170.993 15.173 169.673 13.812 168.312 Z M17.812 173.312 C18.54 176.596 18.54 176.596 21.812 178.062 C27.577 180.311 32.855 179.171 38.375 176.75 C39.582 176.038 39.582 176.038 40.812 175.312 C40.812 174.653 40.812 173.993 40.812 173.312 C40.214 173.622 39.616 173.931 39 174.25 C33.808 176.772 28.229 177.383 22.668 175.641 C21.02 174.929 19.411 174.129 17.812 173.312 Z " fill="#F9F9F6" transform="translate(283.1875,76.6875)"/>
<path d="M0 0 C7.14 4.261 9.963 8.81 12.812 16.5 C13.191 17.482 13.57 18.464 13.961 19.475 C21.132 38.537 23.194 58.88 15 78 C8.4 78 1.8 78 -5 78 C-5 79.32 -5 80.64 -5 82 C-3.68 82 -2.36 82 -1 82 C-1 89.59 -1 97.18 -1 105 C-2.32 105.33 -3.64 105.66 -5 106 C-5.164 106.905 -5.164 106.905 -5.332 107.828 C-7.414 114.599 -17.154 118.877 -23.09 122.102 C-41.309 131.39 -63.758 132.963 -83.305 127.344 C-89.509 125.088 -95.208 122.16 -101 119 C-102.031 118.506 -103.062 118.013 -104.125 117.504 C-106.886 116.06 -109.035 114.544 -111.375 112.5 C-112.063 111.912 -112.752 111.324 -113.461 110.719 C-115 109 -115 109 -115 106 C-112.021 105.735 -110.447 105.712 -107.895 107.355 C-106.864 108.262 -106.864 108.262 -105.812 109.188 C-91.341 121.013 -72.301 124.542 -54 123 C-45.978 121.747 -38.394 119.317 -31 116 C-31 114.35 -31 112.7 -31 111 C-31.895 111.003 -31.895 111.003 -32.809 111.007 C-39.005 111.029 -45.202 111.044 -51.398 111.055 C-53.712 111.06 -56.027 111.067 -58.341 111.075 C-61.662 111.088 -64.984 111.093 -68.305 111.098 C-69.864 111.105 -69.864 111.105 -71.455 111.113 C-72.416 111.113 -73.377 111.113 -74.367 111.114 C-75.215 111.116 -76.063 111.118 -76.937 111.12 C-79 111 -79 111 -81 110 C-81 97.79 -81 85.58 -81 73 C-64.5 73 -48 73 -31 73 C-31.04 57.951 -31.04 57.951 -31.09 42.903 C-31.093 41.021 -31.096 39.139 -31.098 37.258 C-31.103 36.275 -31.108 35.292 -31.113 34.279 C-31.113 32.879 -31.113 32.879 -31.114 31.45 C-31.116 30.637 -31.118 29.824 -31.12 28.987 C-31 27 -31 27 -30 25 C-18.12 25 -6.24 25 6 25 C6.784 28.138 7.123 30.185 7.114 33.31 C7.113 34.57 7.113 34.57 7.113 35.857 C7.108 36.755 7.103 37.653 7.098 38.578 C7.096 39.505 7.095 40.431 7.093 41.386 C7.088 44.341 7.075 47.295 7.062 50.25 C7.057 52.255 7.053 54.26 7.049 56.266 C7.038 61.177 7.021 66.089 7 71 C7.66 71 8.32 71 9 71 C14.606 55.482 13.946 36.282 8 21 C6.527 17.861 4.967 14.797 3.328 11.742 C1.458 7.88 0.703 4.219 0 0 Z " fill="#227274" transform="translate(269,148)"/>
<path d="M0 0 C0.745 0.006 1.489 0.011 2.257 0.017 C15.725 0.31 29.086 4.869 38.957 14.312 C50.868 27.151 58.034 44.341 61.812 61.312 C62.036 62.247 62.259 63.182 62.488 64.145 C67.177 87.97 64.89 114.634 52.188 135.562 C49.049 140.725 49.049 140.725 46.812 146.312 C48.156 148.409 48.156 148.409 49.812 150.312 C49.812 151.632 49.812 152.952 49.812 154.312 C50.509 153.879 50.509 153.879 51.219 153.438 C58.869 149.327 66.385 149.94 74.812 150.312 C75.04 152.363 75.268 154.414 75.496 156.465 C75.631 158.324 75.631 158.324 76.812 159.312 C77.287 158.405 77.761 157.498 78.25 156.562 C81.117 152.338 84.89 150.426 89.812 149.312 C94.799 149.365 99.218 150.506 103.25 153.5 C106.627 157.206 108.642 160.402 108.941 165.516 C108.625 171.148 106.876 175.35 102.812 179.312 C100 180.75 100 180.75 97.812 181.312 C98.143 181.972 98.472 182.632 98.812 183.312 C100.708 183.778 100.708 183.778 102.875 183.938 C104.824 184.123 104.824 184.123 106.812 184.312 C107.143 185.632 107.472 186.952 107.812 188.312 C103.578 190.43 98.97 189.562 94.625 188.125 C90.855 186.59 89.283 184.555 86.812 181.312 C84.83 179.971 82.808 178.782 80.715 177.621 C78.443 176.058 77.201 174.7 75.812 172.312 C75.52 169.734 75.52 169.734 75.625 167.062 C75.666 165.724 75.666 165.724 75.707 164.359 C75.742 163.684 75.777 163.008 75.812 162.312 C75.049 162.251 74.286 162.189 73.5 162.125 C70.812 161.312 70.812 161.312 69.375 158.812 C68.004 156.032 68.004 156.032 64.875 155.312 C61.823 155.07 61.823 155.07 59.5 156.562 C55.97 160.223 56.478 164.91 56.535 169.703 C56.642 172.459 56.642 172.459 58.438 175 C61.519 176.703 63.337 176.819 66.812 176.312 C68.983 174.873 68.983 174.873 70.812 173.312 C71.803 173.312 72.793 173.312 73.812 173.312 C73.812 174.963 73.812 176.613 73.812 178.312 C67.655 181.992 63.214 182.823 56.199 181.141 C51.922 179.656 50.498 177.469 48.262 173.695 C46.527 169.647 46.263 166.289 46.125 161.938 C46.091 161.201 46.057 160.465 46.021 159.707 C45.94 157.909 45.874 156.111 45.812 154.312 C45.153 154.312 44.493 154.312 43.812 154.312 C43.647 153.591 43.483 152.869 43.312 152.125 C41.081 147.941 38.186 146.049 33.812 144.312 C28.178 143.29 23.342 143.59 18.312 146.438 C14.937 148.852 13.273 151.387 11.812 155.312 C10.822 154.982 9.832 154.653 8.812 154.312 C9.111 151.038 9.451 149.652 11.887 147.363 C20.797 141.437 26.185 139.781 36.812 141.312 C37.708 141.533 38.604 141.753 39.527 141.98 C40.281 142.09 41.036 142.2 41.812 142.312 C43.937 140.462 43.937 140.462 44.688 138 C45.812 135.312 45.812 135.312 47.656 133.266 C50.588 129.251 51.92 125.078 53.438 120.375 C53.896 118.967 53.896 118.967 54.364 117.531 C63.077 89.91 59.082 59.511 45.959 33.907 C39.938 22.69 31.641 13.244 19.562 8.375 C6.631 4.711 -8.374 4.532 -20.375 10.875 C-26.02 14.409 -28.821 18.948 -30.789 25.234 C-32.692 35.159 -30.929 43.634 -25.422 51.992 C-23.395 54.809 -21.303 57.563 -19.188 60.312 C-17.722 62.287 -16.264 64.266 -14.812 66.25 C-14.165 67.125 -13.518 68.001 -12.852 68.902 C-11.409 70.992 -10.245 73.01 -9.188 75.312 C-10.507 74.322 -11.827 73.332 -13.188 72.312 C-12.858 74.293 -12.527 76.272 -12.188 78.312 C-23.828 67.389 -34.838 52.118 -36.426 35.875 C-36.686 26.88 -34.728 18.679 -30.188 10.875 C-21.693 3.62 -11.107 -0.089 0 0 Z M87.562 156.25 C84.549 161.523 84.452 166.279 85.5 172.188 C86.874 175.458 87.614 176.807 90.812 178.312 C93.379 178.157 94.513 177.556 96.5 175.938 C99.649 172.039 99.276 167.059 98.812 162.312 C97.948 159.45 96.967 156.467 94.812 154.312 C91.387 153.757 90.228 153.955 87.562 156.25 Z " fill="#D5ECED" transform="translate(283.1875,76.6875)"/>
<path d="M0 0 C0.66 0 1.32 0 2 0 C2 15.18 2 30.36 2 46 C-8.23 46 -18.46 46 -29 46 C-29.103 41.978 -29.206 37.956 -29.312 33.812 C-29.358 32.553 -29.404 31.293 -29.45 29.995 C-29.553 21.782 -29.553 21.782 -26.781 17.859 C-24.282 16.188 -21.913 14.701 -19.188 13.438 C-18.32 13.021 -17.452 12.605 -16.559 12.176 C-14.975 11.448 -13.385 10.734 -11.785 10.043 C-7.086 7.923 -4.334 5.523 -1.227 1.391 C-0.822 0.932 -0.417 0.473 0 0 Z " fill="#EDB340" transform="translate(270,258)"/>
<path d="M0 0 C0.573 -0.731 0.573 -0.731 1.158 -1.477 C3.663 -3.548 5.251 -3.373 8.473 -3.363 C9.537 -3.363 10.601 -3.362 11.697 -3.361 C13.363 -3.337 13.363 -3.337 15.062 -3.312 C16.734 -3.317 16.734 -3.317 18.439 -3.322 C26.733 -3.267 26.733 -3.267 29 -1 C29.125 2.625 29.125 2.625 29 6 C27.68 6.33 26.36 6.66 25 7 C24.319 5.762 24.319 5.762 23.625 4.5 C23.089 3.675 22.553 2.85 22 2 C21.34 2 20.68 2 20 2 C19.884 5.437 19.813 8.874 19.75 12.312 C19.716 13.289 19.683 14.265 19.648 15.271 C19.636 16.209 19.623 17.147 19.609 18.113 C19.588 18.977 19.567 19.841 19.546 20.732 C20.151 23.753 21.509 24.336 24 26 C24 26.66 24 27.32 24 28 C18.06 28 12.12 28 6 28 C8 24 8 24 9 23 C9.087 21.438 9.107 19.873 9.098 18.309 C9.094 17.364 9.091 16.42 9.088 15.447 C9.08 14.454 9.071 13.461 9.062 12.438 C9.058 11.44 9.053 10.443 9.049 9.416 C9.037 6.944 9.021 4.472 9 2 C7.68 2 6.36 2 5 2 C4.34 3.98 3.68 5.96 3 8 C-0.273 8 -2.847 7.701 -6 7 C-5.988 7.843 -5.977 8.686 -5.965 9.555 C-5.956 10.65 -5.947 11.746 -5.938 12.875 C-5.926 13.966 -5.914 15.056 -5.902 16.18 C-6 19 -6 19 -7 21 C-8.938 20.188 -8.938 20.188 -11 19 C-11.33 18.01 -11.66 17.02 -12 16 C-12.66 15.67 -13.32 15.34 -14 15 C-13.67 17.64 -13.34 20.28 -13 23 C-8.934 22.814 -8.934 22.814 -5 22 C-3.156 19.539 -3.156 19.539 -2 17 C-1.01 17 -0.02 17 1 17 C0.86 18.646 0.713 20.292 0.562 21.938 C0.481 22.854 0.4 23.771 0.316 24.715 C0 27 0 27 -1 28 C-2.854 28.087 -4.711 28.107 -6.566 28.098 C-7.691 28.094 -8.816 28.091 -9.975 28.088 C-11.159 28.08 -12.343 28.071 -13.562 28.062 C-14.75 28.058 -15.938 28.053 -17.162 28.049 C-20.108 28.037 -23.054 28.021 -26 28 C-26 25 -26 25 -24 23 C-23.69 20.837 -23.69 20.837 -23.734 18.352 C-23.732 17.429 -23.729 16.506 -23.727 15.555 C-23.734 14.588 -23.742 13.621 -23.75 12.625 C-23.742 11.666 -23.735 10.707 -23.727 9.719 C-23.73 8.33 -23.73 8.33 -23.734 6.914 C-23.737 6.068 -23.739 5.222 -23.741 4.35 C-24.019 1.825 -24.732 0.183 -26 -2 C-22.606 -2.256 -19.21 -2.475 -15.812 -2.688 C-14.853 -2.76 -13.893 -2.833 -12.904 -2.908 C-4.112 -3.425 -4.112 -3.425 0 0 Z M-14 2 C-14 4.97 -14 7.94 -14 11 C-11.126 8.284 -11.126 8.284 -9 5 C-8.01 5 -7.02 5 -6 5 C-6.33 4.01 -6.66 3.02 -7 2 C-10.583 0.998 -10.583 0.998 -14 2 Z " fill="#EDF7F7" transform="translate(419,230)"/>
<path d="M0 0 C0.745 0.006 1.489 0.011 2.257 0.017 C15.725 0.31 29.086 4.869 38.957 14.312 C53.34 29.816 59.014 48.779 61.812 69.312 C62.003 70.507 62.194 71.702 62.391 72.934 C64.508 89.889 62.76 108.62 55.812 124.312 C54.221 120.325 55.507 116.98 56.688 113.062 C61.884 95.256 60.258 77.303 56.812 59.312 C56.6 58.186 56.387 57.059 56.168 55.898 C55.737 53.699 55.28 51.505 54.812 49.312 C54.153 49.312 53.493 49.312 52.812 49.312 C52.4 48.285 51.988 47.258 51.562 46.199 C45.403 31.266 36.626 16.849 21.699 9.234 C11.09 5.032 -4.418 4.227 -15.188 8.312 C-22.716 11.756 -27.142 15.522 -30.188 23.312 C-32.614 31.066 -31.904 39.49 -28.578 46.82 C-25.888 51.641 -22.548 55.946 -19.188 60.312 C-17.722 62.287 -16.264 64.266 -14.812 66.25 C-14.165 67.125 -13.518 68.001 -12.852 68.902 C-11.409 70.992 -10.245 73.01 -9.188 75.312 C-10.507 74.322 -11.827 73.332 -13.188 72.312 C-12.858 74.293 -12.527 76.272 -12.188 78.312 C-23.828 67.389 -34.838 52.118 -36.426 35.875 C-36.686 26.88 -34.728 18.679 -30.188 10.875 C-21.693 3.62 -11.107 -0.089 0 0 Z " fill="#73A5A7" transform="translate(283.1875,76.6875)"/>
<path d="M0 0 C0.495 0.99 0.495 0.99 1 2 C-3.546 4.273 -10.087 3.687 -15 4 C-15 12.58 -15 21.16 -15 30 C-11.226 30.093 -11.226 30.093 -7.375 30.188 C-6.594 30.215 -5.814 30.242 -5.009 30.27 C-0.278 30.326 2.904 29.609 7 27 C10.39 22.254 10.558 17.632 10 12 C9.67 11.01 9.34 10.02 9 9 C9.99 9.33 10.98 9.66 12 10 C12.026 10.915 12.052 11.83 12.078 12.773 C12.135 13.962 12.192 15.15 12.25 16.375 C12.296 17.558 12.343 18.742 12.391 19.961 C12.649 23.097 12.649 23.097 14.957 24.32 C15.631 24.545 16.305 24.769 17 25 C17.474 25.495 17.949 25.99 18.438 26.5 C21.044 29.002 23.442 29.971 27.078 30.039 C34.392 29.517 39.304 26.556 45 22 C45.33 23.32 45.66 24.64 46 26 C40.185 31.649 35.913 34.444 27.688 35.375 C20.592 34.653 14.237 31.888 9 27 C9.33 28.32 9.66 29.64 10 31 C7.36 31 4.72 31 2 31 C2 31.66 2 32.32 2 33 C-1.63 33.33 -5.26 33.66 -9 34 C-8.99 35.353 -8.979 36.705 -8.968 38.099 C-8.932 43.105 -8.909 48.11 -8.89 53.116 C-8.88 55.285 -8.866 57.454 -8.849 59.623 C-8.825 62.736 -8.814 65.848 -8.805 68.961 C-8.794 69.935 -8.784 70.909 -8.773 71.912 C-8.773 72.813 -8.773 73.714 -8.773 74.642 C-8.769 75.437 -8.764 76.232 -8.759 77.051 C-9 79 -9 79 -11 81 C-14.133 81.259 -14.133 81.259 -18.125 81.266 C-18.828 81.268 -19.53 81.269 -20.254 81.271 C-21.741 81.273 -23.227 81.269 -24.713 81.261 C-26.991 81.25 -29.269 81.261 -31.547 81.273 C-32.99 81.272 -34.432 81.27 -35.875 81.266 C-37.192 81.263 -38.51 81.261 -39.867 81.259 C-43 81 -43 81 -45 79 C-45.259 76.617 -45.259 76.617 -45.266 73.66 C-45.269 72.066 -45.269 72.066 -45.273 70.439 C-45.266 69.325 -45.258 68.211 -45.25 67.062 C-45.262 65.397 -45.262 65.397 -45.273 63.697 C-45.271 62.633 -45.268 61.569 -45.266 60.473 C-45.263 59.496 -45.261 58.519 -45.259 57.512 C-45 55 -45 55 -43 52 C-42.34 52.33 -41.68 52.66 -41 53 C-41.33 53.33 -41.66 53.66 -42 54 C-42.158 55.852 -42.251 57.709 -42.316 59.566 C-42.355 60.579 -42.393 61.592 -42.432 62.635 C-42.475 63.931 -42.518 65.227 -42.562 66.562 C-42.707 70.667 -42.851 74.771 -43 79 C-32.77 79 -22.54 79 -12 79 C-12 63.82 -12 48.64 -12 33 C-13.65 34.65 -15.3 36.3 -17 38 C-18.961 39.722 -20.975 41.352 -23 43 C-23.66 42.67 -24.32 42.34 -25 42 C-23.47 40.763 -21.94 39.526 -20.41 38.289 C-18.867 37.033 -18.867 37.033 -18 35 C-19 35.636 -19 35.636 -20.02 36.285 C-21.971 37.527 -23.926 38.764 -25.883 39.996 C-27.82 41.241 -29.736 42.52 -31.617 43.848 C-47.985 55.166 -69.305 57.378 -88.66 54.387 C-98.803 52.431 -108.212 48.397 -117 43 C-117.66 42.01 -118.32 41.02 -119 40 C-115.382 41.369 -112.079 43.023 -108.688 44.875 C-89.58 54.348 -68.054 54.615 -48 48 C-47.105 47.723 -46.211 47.446 -45.289 47.16 C-37.212 44.324 -26.479 38.705 -21 32 C-20.505 30.515 -20.505 30.515 -20 29 C-19.01 28.67 -18.02 28.34 -17 28 C-16.67 20.41 -16.34 12.82 -16 5 C-17.32 5 -18.64 5 -20 5 C-20 3.68 -20 2.36 -20 1 C-10.1 0.505 -10.1 0.505 0 0 Z " fill="#F3F0DE" transform="translate(284,225)"/>
<path d="M0 0 C1.708 1.634 2.935 2.869 4 5 C4.66 4.34 5.32 3.68 6 3 C9.802 2.881 13.549 2.958 17.348 3.078 C18.138 3.094 18.928 3.109 19.742 3.125 C20.823 3.16 20.823 3.16 21.925 3.195 C24.323 2.97 25.866 2.067 28 1 C28.66 1.33 29.32 1.66 30 2 C31.395 2.047 32.792 2.037 34.188 2 C38.627 1.936 42.953 2.234 47.375 2.625 C54.21 3.133 60.332 2.503 67 1 C69.577 4.79 68.726 7.646 68 12 C61.38 12.025 54.759 12.043 48.139 12.055 C45.887 12.06 43.635 12.067 41.382 12.075 C38.145 12.088 34.909 12.093 31.672 12.098 C30.664 12.103 29.657 12.108 28.619 12.113 C27.208 12.113 27.208 12.113 25.769 12.114 C24.529 12.117 24.529 12.117 23.265 12.12 C21.049 12.003 19.127 11.616 17 11 C16.67 12.32 16.34 13.64 16 15 C15.01 15 14.02 15 13 15 C11.312 13 11.312 13 10 11 C9.67 12.65 9.34 14.3 9 16 C5.223 14.187 1.627 12.093 -2 10 C-2 10.66 -2 11.32 -2 12 C-3.32 12 -4.64 12 -6 12 C-6 11.01 -6 10.02 -6 9 C-4.68 9 -3.36 9 -2 9 C-2 6.36 -2 3.72 -2 1 C-1.34 0.67 -0.68 0.34 0 0 Z " fill="#7EB2BB" transform="translate(346,273)"/>
<path d="M0 0 C2.846 -0.083 5.692 -0.165 8.625 -0.25 C9.51 -0.286 10.395 -0.323 11.307 -0.36 C16.707 -0.436 19.719 0.413 24 4 C27.185 7.716 27.462 11.059 27.289 15.785 C26.734 20.038 25.152 22.956 22 25.812 C18.709 27.767 16.076 28.122 12.332 28.098 C11.439 28.094 10.547 28.091 9.627 28.088 C8.234 28.075 8.234 28.075 6.812 28.062 C5.872 28.058 4.932 28.053 3.963 28.049 C1.642 28.037 -0.679 28.021 -3 28 C-1.68 27.67 -0.36 27.34 1 27 C0.67 18.09 0.34 9.18 0 0 Z M11 14 C12 17 12 17 12 17 Z " fill="#0B6F80" transform="translate(268,228)"/>
<path d="M0 0 C3.307 1.756 5.416 4.086 7.438 7.25 C8.394 11.925 8.328 16.581 5.988 20.844 C3.445 24.118 1.015 26.044 -3 27 C-7.99 27.554 -11.33 26.939 -15.484 24.254 C-18.651 21.634 -19.729 18.898 -20.301 14.895 C-20.321 10.911 -19.605 8.716 -17.012 5.645 C-11.806 1.07 -7.004 -2.036 0 0 Z " fill="#EDB340" transform="translate(318,225)"/>
<path d="M0 0 C3.95 2.983 5.796 6.303 7.125 10.992 C7.463 16.771 6.129 21.09 2.535 25.617 C0.615 27.49 -1.296 28.329 -3.875 28.992 C-3.545 29.652 -3.215 30.312 -2.875 30.992 C-0.98 31.457 -0.98 31.457 1.188 31.617 C3.137 31.803 3.137 31.803 5.125 31.992 C5.455 33.312 5.785 34.632 6.125 35.992 C2.127 37.991 -2.608 37.314 -6.875 36.367 C-12.181 34.149 -14.434 29.034 -16.586 23.984 C-18.818 17.848 -18.962 11.403 -17.875 4.992 C-16.336 2.562 -16.336 2.562 -14.875 0.992 C-15.535 0.332 -16.195 -0.328 -16.875 -1.008 C-11.534 -4.212 -5.276 -2.836 0 0 Z M-14.125 3.93 C-17.138 9.203 -17.236 13.959 -16.188 19.867 C-14.814 23.138 -14.073 24.487 -10.875 25.992 C-8.309 25.837 -7.174 25.236 -5.188 23.617 C-2.039 19.719 -2.411 14.738 -2.875 9.992 C-3.739 7.129 -4.72 4.147 -6.875 1.992 C-10.3 1.437 -11.459 1.634 -14.125 3.93 Z " fill="#227C8C" transform="translate(384.875,229.0078125)"/>
<path d="M0 0 C0.66 0.66 1.32 1.32 2 2 C-0.386 1.536 -2.756 1.062 -5.113 0.465 C-17.485 -2.502 -30.836 -2.437 -42.188 3.562 C-47.832 7.097 -50.634 11.635 -52.602 17.922 C-54.504 27.847 -52.741 36.322 -47.234 44.68 C-45.208 47.496 -43.116 50.25 -41 53 C-39.535 54.974 -38.076 56.953 -36.625 58.938 C-35.978 59.813 -35.331 60.688 -34.664 61.59 C-33.221 63.679 -32.058 65.698 -31 68 C-32.32 67.01 -33.64 66.02 -35 65 C-34.67 66.98 -34.34 68.96 -34 71 C-45.415 60.288 -57.551 44.319 -58.098 28.105 C-58.086 27.143 -58.074 26.18 -58.062 25.188 C-58.053 24.212 -58.044 23.236 -58.035 22.23 C-58.024 21.494 -58.012 20.758 -58 20 C-57.67 20 -57.34 20 -57 20 C-56.67 22.97 -56.34 25.94 -56 29 C-55.914 28.01 -55.827 27.02 -55.738 26 C-54.753 16.209 -53.001 9.516 -45.625 2.688 C-33.167 -7.236 -13.958 -5.948 0 0 Z " fill="#6EA2A4" transform="translate(305,84)"/>
<path d="M0 0 C6.409 0.35 6.409 0.35 8.398 2.539 C10.652 4.595 12.196 4.304 15.188 4.188 C16.089 4.16 16.99 4.133 17.918 4.105 C18.605 4.071 19.292 4.036 20 4 C20.33 3.01 20.66 2.02 21 1 C23.25 1 23.25 1 26 2 C28.438 5.474 30 8.738 30 13 C25.603 13.025 21.207 13.043 16.81 13.055 C15.314 13.06 13.817 13.067 12.32 13.075 C10.173 13.088 8.026 13.093 5.879 13.098 C3.939 13.106 3.939 13.106 1.959 13.114 C-1 13 -1 13 -2 12 C-2.125 10.358 -2.176 8.709 -2.188 7.062 C-2.202 6.167 -2.216 5.271 -2.23 4.348 C-2 2 -2 2 0 0 Z " fill="#EEF5F6" transform="translate(278,272)"/>
<path d="M0 0 C2.371 3.557 3.13 7.024 4.062 11.125 C4.236 11.847 4.409 12.569 4.588 13.312 C9.272 33.486 7.074 53.166 2 73 C8.673 51.684 9.353 31.935 5.364 10.069 C4.834 7.055 4.414 4.032 4 1 C6.129 4.193 6.73 6.468 7.562 10.188 C7.811 11.274 8.06 12.361 8.316 13.48 C11.376 29.231 11.424 46.341 8.25 62.062 C8.093 62.839 7.936 63.616 7.775 64.417 C5.977 72.34 2.578 79.325 -1.625 86.25 C-4.767 91.411 -4.767 91.411 -7 97 C-5.608 99.133 -5.608 99.133 -4 101 C-4.33 101.99 -4.66 102.98 -5 104 C-6.98 101.36 -8.96 98.72 -11 96 C-9.217 92.435 -7.24 89.285 -5 86 C-6.32 86.99 -7.64 87.98 -9 89 C-8.001 86.849 -7.007 85.008 -5.535 83.14 C7.732 64.647 6.257 36.674 2.852 15.531 C2.35 12.641 1.711 9.993 0.898 7.156 C0 4 0 4 0 0 Z " fill="#EFF5F5" transform="translate(337,126)"/>
<path d="M0 0 C-0.33 2.97 -0.66 5.94 -1 9 C-7.639 9.049 -14.277 9.086 -20.916 9.11 C-23.175 9.12 -25.434 9.134 -27.693 9.151 C-30.937 9.175 -34.181 9.186 -37.426 9.195 C-38.438 9.206 -39.451 9.216 -40.494 9.227 C-41.435 9.227 -42.376 9.227 -43.345 9.227 C-44.173 9.231 -45.002 9.236 -45.855 9.241 C-48 9 -48 9 -51 7 C-44.93 5.863 -39.209 6.072 -33.062 6.438 C-32.092 6.49 -31.122 6.542 -30.123 6.596 C-27.748 6.724 -25.374 6.859 -23 7 C-23 5.02 -23 3.04 -23 1 C-23.66 0.67 -24.32 0.34 -25 0 C-23.983 0.035 -23.983 0.035 -22.945 0.07 C-17.064 0.184 -11.882 -0.239 -6.191 -1.758 C-4 -2 -4 -2 0 0 Z " fill="#F8FAFB" transform="translate(415,276)"/>
<path d="M0 0 C2.018 0.065 4.036 0.13 6.055 0.195 C0.089 9.011 0.089 9.011 -4.945 10.195 C-4.162 9.432 -3.378 8.669 -2.57 7.883 C0.127 5.286 0.127 5.286 2.055 2.195 C1.055 2.831 1.055 2.831 0.035 3.48 C-1.916 4.722 -3.871 5.959 -5.828 7.191 C-7.765 8.437 -9.681 9.715 -11.562 11.043 C-27.93 22.361 -49.25 24.573 -68.605 21.582 C-78.748 19.626 -88.157 15.592 -96.945 10.195 C-97.605 9.205 -98.265 8.215 -98.945 7.195 C-95.328 8.564 -92.025 10.218 -88.633 12.07 C-69.525 21.543 -47.999 21.811 -27.945 15.195 C-27.051 14.918 -26.156 14.641 -25.234 14.355 C-17.379 11.597 -7.362 0.739 0 0 Z " fill="#EDF4F4" transform="translate(263.9453125,257.8046875)"/>
<path d="M0 0 C0.33 0 0.66 0 1 0 C1.33 2.97 1.66 5.94 2 9 C3.32 6.36 4.64 3.72 6 1 C7.32 1.33 8.64 1.66 10 2 C12.459 7.041 12.998 12.652 11.395 18.031 C9.487 22.756 9.487 22.756 7 24 C4.69 24 2.38 24 0 24 C0 16.08 0 8.16 0 0 Z M3 12 C4 15 4 15 4 15 Z " fill="#C7E3DE" transform="translate(276,230)"/>
<path d="M0 0 C4.95 0 9.9 0 15 0 C15 0.33 15 0.66 15 1 C12.69 1 10.38 1 8 1 C8.33 9.25 8.66 17.5 9 26 C10.32 26.66 11.64 27.32 13 28 C7.72 28 2.44 28 -3 28 C-1.68 27.67 -0.36 27.34 1 27 C0.67 18.09 0.34 9.18 0 0 Z " fill="#096E7F" transform="translate(268,228)"/>
<path d="M0 0 C0.744 0.004 1.487 0.008 2.254 0.012 C7.615 0.096 12.458 0.747 17.625 2.25 C17.625 3.24 17.625 4.23 17.625 5.25 C16.449 5.085 15.274 4.92 14.062 4.75 C1.721 3.407 -11.992 2.487 -22.625 9.84 C-28.266 14.386 -31.775 19.963 -32.593 27.173 C-32.995 31.86 -33.21 36.55 -33.375 41.25 C-33.705 41.25 -34.035 41.25 -34.375 41.25 C-36.817 30.614 -36.124 20.418 -30.438 11.062 C-23.025 2.974 -10.561 -0.133 0 0 Z " fill="#559294" transform="translate(283.375,76.75)"/>
<path d="M0 0 C8.169 7.243 10.843 21.445 11.875 31.898 C12.446 41.494 11.525 50.526 10 60 C9.663 62.333 9.328 64.666 9 67 C9.99 67 10.98 67 12 67 C12.722 66.278 13.444 65.556 14.188 64.812 C18.456 60.544 23.955 56.244 30.199 55.867 C34.346 55.88 38.335 55.987 42.438 56.625 C46.101 57.394 46.101 57.394 49 55 C48.25 56.938 48.25 56.938 47 59 C43.799 60.198 42.8 59.946 39.312 59 C33.676 57.497 28.721 57.482 23.535 60.375 C21.981 61.423 20.448 62.505 18.945 63.625 C17 65 17 65 14 66 C13.833 68.416 13.833 68.416 14 71 C14.66 71.66 15.32 72.32 16 73 C12.988 72.356 10.483 71.35 7.75 69.938 C6.69 69.394 6.69 69.394 5.609 68.84 C4.813 68.424 4.813 68.424 4 68 C4.99 67.505 4.99 67.505 6 67 C5.959 66.196 5.918 65.391 5.875 64.562 C6.001 60.959 6.612 57.83 7.465 54.344 C11.389 37.16 8.89 19.663 0.953 4.004 C0 2 0 2 0 0 Z " fill="#E4EEEE" transform="translate(279,160)"/>
<path d="M0 0 C4.95 0 9.9 0 15 0 C15 1.98 15 3.96 15 6 C14.257 5.361 13.515 4.721 12.75 4.062 C10.212 2.159 8.982 1.605 6 1 C6.109 5.126 6.24 9.25 6.375 13.375 C6.406 14.551 6.437 15.726 6.469 16.938 C6.527 18.62 6.527 18.62 6.586 20.336 C6.617 21.373 6.649 22.41 6.681 23.478 C6.76 26.168 6.76 26.168 9 28 C5.37 28 1.74 28 -2 28 C-1.67 27.34 -1.34 26.68 -1 26 C-0.846 24.042 -0.75 22.08 -0.684 20.117 C-0.621 18.367 -0.621 18.367 -0.557 16.582 C-0.517 15.359 -0.478 14.135 -0.438 12.875 C-0.394 11.644 -0.351 10.413 -0.307 9.145 C-0.2 6.096 -0.1 3.048 0 0 Z " fill="#0A6E7F" transform="translate(430,228)"/>
<path d="M0 0 C2.31 0 4.62 0 7 0 C7.891 8.496 7.994 16.511 7 25 C8.624 25.081 10.25 25.139 11.875 25.188 C12.78 25.222 13.685 25.257 14.617 25.293 C15.404 25.196 16.19 25.1 17 25 C17.66 24.01 18.32 23.02 19 22 C19.66 22 20.32 22 21 22 C21 23.65 21 25.3 21 27 C14.07 27 7.14 27 0 27 C0 18.09 0 9.18 0 0 Z " fill="#107283" transform="translate(396,229)"/>
<path d="M0 0 C1.75 0.188 1.75 0.188 4 1 C4.639 1.804 5.279 2.609 5.938 3.438 C8.168 6.209 9.653 6.977 13 8 C12.67 7.01 12.34 6.02 12 5 C13 4 13 4 15.941 3.902 C17.734 3.92 17.734 3.92 19.562 3.938 C21.359 3.951 21.359 3.951 23.191 3.965 C24.118 3.976 25.045 3.988 26 4 C27 6 27 6 26.062 9.125 C25.537 10.548 25.537 10.548 25 12 C23.907 11.794 22.814 11.587 21.688 11.375 C17.916 10.597 17.916 10.597 15 13 C10.399 13.608 8.58 13.413 4.75 10.688 C3.842 9.801 2.935 8.914 2 8 C1.361 7.505 0.721 7.01 0.062 6.5 C-1 5 -1 5 -0.688 2.312 C-0.461 1.549 -0.234 0.786 0 0 Z " fill="#FCFDFD" transform="translate(418,272)"/>
<path d="M0 0 C-0.486 0.674 -0.972 1.348 -1.473 2.043 C-4.329 7.572 -3.616 13.945 -3 20 C-1.953 23.002 -0.661 25.267 1 28 C0.67 28.66 0.34 29.32 0 30 C-1.468 29.121 -2.924 28.221 -4.375 27.312 C-5.187 26.814 -5.999 26.315 -6.836 25.801 C-10.006 23.163 -10.802 20.596 -11.301 16.57 C-11.328 10.927 -10.785 6.951 -8 2 C-4.772 -0.152 -3.716 -0.201 0 0 Z " fill="#237E8D" transform="translate(371,229)"/>
<path d="M0 0 C-0.639 0.619 -1.279 1.238 -1.938 1.875 C-5.02 5.051 -5.179 6.916 -5.25 11.25 C-5.143 17.611 -5.143 17.611 -2 23 C0.96 24.076 3.879 24.621 7 25 C7 25.33 7 25.66 7 26 C5.063 26.054 3.125 26.093 1.188 26.125 C0.109 26.148 -0.97 26.171 -2.082 26.195 C-5 26 -5 26 -8 24 C-8 23.34 -8 22.68 -8 22 C-8.639 21.732 -9.279 21.464 -9.938 21.188 C-12 20 -12 20 -13 17 C-13.386 11.214 -13.103 7.105 -10 2 C-6.631 -0.318 -4.008 -1.336 0 0 Z " fill="#0B6E80" transform="translate(343,230)"/>
<path d="M0 0 C0.639 0.144 1.279 0.289 1.938 0.438 C8.64 1.669 15.192 2.124 22 2 C21.281 5.235 20.264 7.839 19 11 C14.05 11 9.1 11 4 11 C0 1.125 0 1.125 0 0 Z " fill="#C3DBDF" transform="translate(317,274)"/>
<path d="M0 0 C0.66 1.32 1.32 2.64 2 4 C-3.815 9.649 -8.087 12.444 -16.312 13.375 C-22.424 12.754 -27.938 10.767 -32.625 6.75 C-33.079 6.173 -33.533 5.595 -34 5 C-33.67 4.01 -33.34 3.02 -33 2 C-28.796 2.467 -26.84 2.913 -24 6 C-19.418 8.695 -15.001 8.199 -10 7 C-6.15 5.371 -2.729 3.211 0 0 Z " fill="#599597" transform="translate(328,247)"/>
<path d="M0 0 C0 4.39 -2.128 5.769 -5 9 C-3.949 11.265 -2.993 13.007 -1.312 14.875 C0 17 0 17 -0.312 20.25 C-0.653 21.611 -0.653 21.611 -1 23 C-1.66 22.67 -2.32 22.34 -3 22 C-3 21.34 -3 20.68 -3 20 C-3.66 20 -4.32 20 -5 20 C-5.248 18.917 -5.248 18.917 -5.5 17.812 C-7.731 13.629 -10.627 11.736 -15 10 C-20.634 8.978 -25.471 9.278 -30.5 12.125 C-33.876 14.539 -35.539 17.074 -37 21 C-37.99 20.67 -38.98 20.34 -40 20 C-39.701 16.726 -39.361 15.34 -36.926 13.051 C-26.198 5.915 -19.525 5.495 -7 8 C-4.69 5.36 -2.38 2.72 0 0 Z " fill="#247376" transform="translate(332,211)"/>
<path d="M0 0 C0 2.64 0 5.28 0 8 C-0.49 7.202 -0.98 6.404 -1.484 5.582 C-4.778 2.201 -7.757 2.017 -12.25 1.688 C-12.995 1.615 -13.74 1.542 -14.508 1.467 C-16.337 1.291 -18.168 1.143 -20 1 C-19.67 1.66 -19.34 2.32 -19 3 C-18.915 4.813 -18.893 6.63 -18.902 8.445 C-18.906 9.522 -18.909 10.598 -18.912 11.707 C-18.92 12.835 -18.929 13.963 -18.938 15.125 C-18.942 16.261 -18.947 17.396 -18.951 18.566 C-18.963 21.378 -18.981 24.189 -19 27 C-12.4 27.33 -5.8 27.66 1 28 C0.67 25.69 0.34 23.38 0 21 C0.33 20.34 0.66 19.68 1 19 C1.99 19 2.98 19 4 19 C3.86 20.646 3.713 22.292 3.562 23.938 C3.481 24.854 3.4 25.771 3.316 26.715 C3 29 3 29 2 30 C0.146 30.087 -1.711 30.107 -3.566 30.098 C-4.691 30.094 -5.816 30.091 -6.975 30.088 C-8.159 30.08 -9.343 30.071 -10.562 30.062 C-11.75 30.058 -12.938 30.053 -14.162 30.049 C-17.108 30.037 -20.054 30.021 -23 30 C-23 27 -23 27 -21 25 C-20.69 22.837 -20.69 22.837 -20.734 20.352 C-20.732 19.429 -20.729 18.506 -20.727 17.555 C-20.734 16.588 -20.742 15.621 -20.75 14.625 C-20.742 13.666 -20.735 12.707 -20.727 11.719 C-20.73 10.33 -20.73 10.33 -20.734 8.914 C-20.737 8.068 -20.739 7.222 -20.741 6.35 C-21.019 3.825 -21.732 2.183 -23 0 C-19.542 -0.196 -16.084 -0.381 -12.625 -0.562 C-11.64 -0.619 -10.655 -0.675 -9.641 -0.732 C-8.7 -0.781 -7.759 -0.829 -6.789 -0.879 C-5.485 -0.95 -5.485 -0.95 -4.155 -1.022 C-2 -1 -2 -1 0 0 Z " fill="#E4F3F3" transform="translate(416,228)"/>
<path d="M0 0 C3 1 3 1 4.062 3.055 C12.125 27.31 13.522 56.232 3 80 C1.409 76.012 2.694 72.667 3.875 68.75 C9.979 47.834 7.726 24.823 0.77 4.371 C0 2 0 2 0 0 Z " fill="#337D7F" transform="translate(336,121)"/>
<path d="M0 0 C4.026 -0.493 7.542 -0.87 11.121 1.266 C16.815 6.143 16.815 6.143 17.238 10.391 C17.396 16.473 17.257 20.27 13 25 C10.938 26.938 10.938 26.938 9 28 C8.01 27.67 7.02 27.34 6 27 C6.66 26.278 7.32 25.556 8 24.812 C11.339 19.815 10.713 13.733 10 8 C9.043 5.053 8.331 4.208 6 2 C2.867 1.031 2.867 1.031 0 1 C0 0.67 0 0.34 0 0 Z " fill="#0D7081" transform="translate(372,228)"/>
<path d="M0 0 C1.708 1.634 2.935 2.869 4 5 C4.66 4.34 5.32 3.68 6 3 C8.625 2.875 8.625 2.875 11 3 C10.01 3.495 10.01 3.495 9 4 C9 5.32 9 6.64 9 8 C10.32 8.33 11.64 8.66 13 9 C13.33 10.32 13.66 11.64 14 13 C14.33 12.01 14.66 11.02 15 10 C15.66 10 16.32 10 17 10 C16.67 11.65 16.34 13.3 16 15 C15.01 15 14.02 15 13 15 C11.312 13 11.312 13 10 11 C9.67 12.65 9.34 14.3 9 16 C5.223 14.187 1.627 12.093 -2 10 C-2 10.66 -2 11.32 -2 12 C-3.32 12 -4.64 12 -6 12 C-6 11.01 -6 10.02 -6 9 C-4.68 9 -3.36 9 -2 9 C-2 6.36 -2 3.72 -2 1 C-1.34 0.67 -0.68 0.34 0 0 Z " fill="#E8F1F3" transform="translate(346,273)"/>
<path d="M0 0 C1.458 -0.054 2.916 -0.093 4.375 -0.125 C5.187 -0.148 5.999 -0.171 6.836 -0.195 C9 0 9 0 11 2 C11.125 5.625 11.125 5.625 11 9 C9.68 9.33 8.36 9.66 7 10 C6.319 8.762 6.319 8.762 5.625 7.5 C5.089 6.675 4.553 5.85 4 5 C3.34 5 2.68 5 2 5 C1.884 8.437 1.813 11.874 1.75 15.312 C1.716 16.289 1.683 17.265 1.648 18.271 C1.636 19.209 1.623 20.147 1.609 21.113 C1.588 21.977 1.567 22.841 1.546 23.732 C2.151 26.753 3.509 27.336 6 29 C6 29.66 6 30.32 6 31 C0.06 31 -5.88 31 -12 31 C-10 27 -10 27 -8 26 C-8 26.66 -8 27.32 -8 28 C-5.36 28 -2.72 28 0 28 C-0.33 27.67 -0.66 27.34 -1 27 C-1.087 25.146 -1.107 23.289 -1.098 21.434 C-1.094 20.309 -1.091 19.184 -1.088 18.025 C-1.08 16.841 -1.071 15.657 -1.062 14.438 C-1.058 13.25 -1.053 12.062 -1.049 10.838 C-1.037 7.892 -1.021 4.946 -1 2 C4.75 2.75 4.75 2.75 7 5 C7.33 3.68 7.66 2.36 8 1 C5.36 1 2.72 1 0 1 C0 0.67 0 0.34 0 0 Z " fill="#D5EDEE" transform="translate(437,227)"/>
<path d="M0 0 C0.66 0.66 1.32 1.32 2 2 C-0.386 1.536 -2.756 1.062 -5.113 0.465 C-17.485 -2.502 -30.836 -2.437 -42.188 3.562 C-47.336 6.876 -50.161 10.131 -52 16 C-53.045 21.289 -53.559 26.632 -54 32 C-54.33 32 -54.66 32 -55 32 C-55.505 22.261 -55.484 14.03 -49.492 5.973 C-37.348 -7.386 -15.452 -6.584 0 0 Z " fill="#F3F7F7" transform="translate(305,84)"/>
<path d="M0 0 C2.371 3.557 3.13 7.024 4.062 11.125 C4.236 11.847 4.409 12.569 4.588 13.312 C8.997 32.299 8.226 52.532 2 71 C1.876 72.134 1.752 73.269 1.625 74.438 C0.784 79.231 -0.782 83.156 -4.598 86.328 C-6.023 87.285 -7.508 88.152 -9 89 C-8.001 86.849 -7.007 85.008 -5.535 83.14 C7.732 64.647 6.257 36.674 2.852 15.531 C2.35 12.641 1.711 9.993 0.898 7.156 C0 4 0 4 0 0 Z " fill="#D6E4E5" transform="translate(337,126)"/>
<path d="M0 0 C-0.66 0.66 -1.32 1.32 -2 2 C-1.361 2.784 -0.721 3.567 -0.062 4.375 C4.148 9.734 3.611 15.381 3 22 C1.84 24.912 0.221 26.779 -2 29 C-5.312 28.938 -5.312 28.938 -9 28 C-12.834 23.506 -13.525 20.208 -13.438 14.375 C-13.436 13.083 -13.435 11.792 -13.434 10.461 C-12.992 6.935 -12.416 5.525 -10 3 C-10.66 2.34 -11.32 1.68 -12 1 C-7.673 -1.229 -4.716 -0.925 0 0 Z M-9.25 5.938 C-12.263 11.211 -12.361 15.966 -11.312 21.875 C-9.939 25.146 -9.198 26.495 -6 28 C-3.434 27.844 -2.299 27.244 -0.312 25.625 C2.836 21.727 2.464 16.746 2 12 C1.136 9.137 0.155 6.155 -2 4 C-5.425 3.445 -6.584 3.642 -9.25 5.938 Z " fill="#D7EAEC" transform="translate(380,227)"/>
<path d="M0 0 C1.523 2.937 2.801 5.917 4 9 C-2.426 15.238 -7.796 18.947 -16.875 19.5 C-21.873 19.378 -25.116 17.528 -29.395 15.113 C-33.834 13.217 -38.267 13.595 -43 14 C-43 13.67 -43 13.34 -43 13 C-39.535 12.505 -39.535 12.505 -36 12 C-36 11.01 -36 10.02 -36 9 C-33.421 10.238 -30.96 11.607 -28.5 13.062 C-23.175 16.097 -18.11 17.01 -11.98 15.504 C-7.128 13.862 -3.457 11.812 0 8 C-0.068 4.837 -0.068 4.837 -1 2 C-0.67 1.34 -0.34 0.68 0 0 Z " fill="#F5F8F7" transform="translate(329,243)"/>
<path d="M0 0 C13.479 4.044 22.801 11.828 30 24 C30.723 26.836 30.723 26.836 31 29 C29.095 26.637 27.203 24.272 25.387 21.84 C21.928 17.246 18.591 13.471 14 10 C14.66 11.32 15.32 12.64 16 14 C12.039 12.257 8.256 9.853 5 7 C5 6.34 5 5.68 5 5 C2.69 4.34 0.38 3.68 -2 3 C-1.34 2.01 -0.68 1.02 0 0 Z " fill="#9BBFC0" transform="translate(302,80)"/>
<path d="M0 0 C0 8.58 0 17.16 0 26 C-0.33 26 -0.66 26 -1 26 C-1.33 18.74 -1.66 11.48 -2 4 C-3.32 4 -4.64 4 -6 4 C-6.66 5.98 -7.32 7.96 -8 10 C-9.98 9.34 -11.96 8.68 -14 8 C-14 5.36 -14 2.72 -14 0 C-12.515 0.99 -12.515 0.99 -11 2 C-10.67 1.484 -10.34 0.969 -10 0.438 C-8 -1 -8 -1 0 0 Z " fill="#EAF5F6" transform="translate(430,228)"/>
<path d="M0 0 C4.211 1.504 5.832 4.207 8 8 C8 8.99 8 9.98 8 11 C3.603 11.025 -0.793 11.043 -5.19 11.055 C-6.686 11.06 -8.183 11.067 -9.68 11.075 C-11.827 11.088 -13.974 11.093 -16.121 11.098 C-18.061 11.106 -18.061 11.106 -20.041 11.114 C-23 11 -23 11 -24 10 C-24.041 8.334 -24.043 6.666 -24 5 C-23.67 6.32 -23.34 7.64 -23 9 C-22.096 8.928 -21.193 8.856 -20.262 8.781 C-19.082 8.688 -17.903 8.596 -16.688 8.5 C-15.516 8.407 -14.344 8.314 -13.137 8.219 C-11.095 8.076 -9.047 8 -7 8 C-4.997 7.686 -2.996 7.355 -1 7 C-1 7.66 -1 8.32 -1 9 C-0.34 9 0.32 9 1 9 C1.33 8.01 1.66 7.02 2 6 C2.33 6.99 2.66 7.98 3 9 C3.66 8.67 4.32 8.34 5 8 C3.366 6.292 2.131 5.065 0 4 C0 2.68 0 1.36 0 0 Z " fill="#EEF5F6" transform="translate(300,274)"/>
<path d="M0 0 C0.33 0 0.66 0 1 0 C1.098 0.892 1.196 1.784 1.297 2.703 C1.446 3.874 1.596 5.044 1.75 6.25 C1.889 7.41 2.028 8.57 2.172 9.766 C3.1 13.389 4.051 14.755 7 17 C10.51 17.512 12.237 17.523 15.188 15.5 C15.786 15.005 16.384 14.51 17 14 C17.99 14 18.98 14 20 14 C20 15.65 20 17.3 20 19 C13.84 22.681 9.418 23.484 2.398 21.852 C-0.516 20.817 -2.223 19.538 -4 17 C-3.34 16.67 -2.68 16.34 -2 16 C-1.608 16.495 -1.216 16.99 -0.812 17.5 C1.551 19.456 3.014 19.242 6 19 C5.196 18.237 4.391 17.474 3.562 16.688 C-0.044 12.905 -0.122 10.342 -0.062 5.312 C-0.053 4.319 -0.044 3.325 -0.035 2.301 C-0.024 1.542 -0.012 0.782 0 0 Z " fill="#CEE6E8" transform="translate(337,236)"/>
<path d="M0 0 C-5.966 8.815 -5.966 8.815 -11 10 C-9.824 8.855 -9.824 8.855 -8.625 7.688 C-5.927 5.091 -5.927 5.091 -4 2 C-4.666 2.424 -5.333 2.848 -6.02 3.285 C-7.959 4.52 -9.901 5.751 -11.844 6.98 C-13.899 8.295 -15.942 9.631 -17.969 10.988 C-19.376 11.922 -19.376 11.922 -20.812 12.875 C-21.665 13.45 -22.517 14.025 -23.395 14.617 C-26.29 16.154 -28.76 16.631 -32 17 C-29.178 13.928 -26.533 12.05 -22.812 10.188 C-18.9 8.153 -15.654 5.997 -12.312 3.125 C-8.04 -0.384 -5.425 -0.69 0 0 Z " fill="#F3F7F7" transform="translate(270,258)"/>
<path d="M0 0 C2.97 0 5.94 0 9 0 C9.495 0.99 9.495 0.99 10 2 C8.02 1.67 6.04 1.34 4 1 C4 2.98 4 4.96 4 7 C6.475 7.495 6.475 7.495 9 8 C9 8.33 9 8.66 9 9 C4.498 9.049 -0.005 9.086 -4.507 9.11 C-6.039 9.12 -7.57 9.134 -9.102 9.151 C-11.304 9.175 -13.505 9.186 -15.707 9.195 C-16.392 9.206 -17.076 9.216 -17.781 9.227 C-21.431 9.227 -22.871 9.086 -26 7 C-19.93 5.863 -14.209 6.072 -8.062 6.438 C-7.092 6.49 -6.122 6.542 -5.123 6.596 C-2.748 6.724 -0.374 6.859 2 7 C2 5.02 2 3.04 2 1 C1.34 0.67 0.68 0.34 0 0 Z " fill="#F5F9F9" transform="translate(390,276)"/>
<path d="M0 0 C0.33 0 0.66 0 1 0 C1 2.64 1 5.28 1 8 C1.99 7.67 2.98 7.34 4 7 C4.33 6.01 4.66 5.02 5 4 C7.062 3.312 7.062 3.312 9 3 C9 4.65 9 6.3 9 8 C9.66 8 10.32 8 11 8 C11.33 6.68 11.66 5.36 12 4 C13.32 4 14.64 4 16 4 C16 5.32 16 6.64 16 8 C16.66 8 17.32 8 18 8 C18.33 7.01 18.66 6.02 19 5 C20.98 4.67 22.96 4.34 25 4 C25.99 5.65 26.98 7.3 28 9 C27.01 9 26.02 9 25 9 C24.67 8.34 24.34 7.68 24 7 C23.67 7.66 23.34 8.32 23 9 C19 9 19 9 16.062 8.438 C12.922 7.989 11.065 8.343 8 9 C5.327 9.09 2.676 9.045 0 9 C0 6.03 0 3.06 0 0 Z " fill="#4C95A1" transform="translate(278,274)"/>
<path d="M0 0 C5.353 1.636 7.556 4.524 10.312 9.25 C11.509 14.037 11.174 18.603 8.988 23.066 C6.551 26.75 4.442 28.948 0 30 C-0.99 30 -1.98 30 -3 30 C-3 29.34 -3 28.68 -3 28 C-1.639 27.443 -1.639 27.443 -0.25 26.875 C3.697 24.598 5.077 23.142 7 19 C7.746 13.815 7.937 9.552 5.188 5 C4.466 4.34 3.744 3.68 3 3 C2.423 2.402 1.845 1.804 1.25 1.188 C0.837 0.796 0.425 0.404 0 0 Z " fill="#D6ECED" transform="translate(381,228)"/>
<path d="M0 0 C17.856 -0.369 17.856 -0.369 26 2 C26 2.99 26 3.98 26 5 C17.09 4.34 8.18 3.68 -1 3 C-0.67 2.01 -0.34 1.02 0 0 Z " fill="#44888A" transform="translate(275,77)"/>
<path d="M0 0 C0 3.63 0 7.26 0 11 C-0.66 11 -1.32 11 -2 11 C-2.33 10.01 -2.66 9.02 -3 8 C-3.66 7.67 -4.32 7.34 -5 7 C-4.67 9.64 -4.34 12.28 -4 15 C-1.36 15 1.28 15 4 15 C3.67 15.66 3.34 16.32 3 17 C-4.75 17.125 -4.75 17.125 -7 16 C-7.785 4.909 -7.785 4.909 -4.625 1.25 C-2 0 -2 0 0 0 Z " fill="#D5E8EA" transform="translate(410,238)"/>
<path d="M0 0 C0.897 0.309 0.897 0.309 1.812 0.625 C1.174 1.026 0.536 1.427 -0.121 1.84 C-5.001 5.088 -5.001 5.088 -8.113 9.883 C-8.809 14.829 -8.216 18.522 -5.188 22.625 C-2.137 24.527 -2.137 24.527 0.812 25.625 C0.812 25.955 0.812 26.285 0.812 26.625 C-1.375 27 -1.375 27 -4.188 26.625 C-6.178 24.785 -7.577 22.833 -9.188 20.625 C-9.848 21.285 -10.507 21.945 -11.188 22.625 C-11.9 14.83 -11.521 9.742 -6.793 3.367 C-3.187 -0.546 -3.187 -0.546 0 0 Z " fill="#FAF8F1" transform="translate(307.1875,225.375)"/>
<path d="M0 0 C0.99 0.33 1.98 0.66 3 1 C7.871 11.211 9.853 22.883 8 34 C7.67 34 7.34 34 7 34 C6.83 32.779 6.66 31.559 6.484 30.301 C5.189 21.382 3.678 12.923 0.77 4.371 C0 2 0 2 0 0 Z " fill="#257477" transform="translate(336,121)"/>
<path d="M0 0 C7.75 0.875 7.75 0.875 10 2 C10 3.98 10 5.96 10 8 C6.7 8 3.4 8 0 8 C0 5.36 0 2.72 0 0 Z " fill="#70AAB4" transform="translate(382,275)"/>
<path d="M0 0 C0.66 0.33 1.32 0.66 2 1 C1.979 1.62 1.958 2.241 1.937 2.88 C1.853 5.691 1.801 8.501 1.75 11.312 C1.716 12.289 1.683 13.265 1.648 14.271 C1.636 15.209 1.623 16.147 1.609 17.113 C1.588 17.977 1.567 18.841 1.546 19.732 C2.151 22.753 3.509 23.336 6 25 C6 25.66 6 26.32 6 27 C0.06 27 -5.88 27 -12 27 C-10 23 -10 23 -8 22 C-8 22.66 -8 23.32 -8 24 C-5.36 24 -2.72 24 0 24 C0 16.08 0 8.16 0 0 Z " fill="#EFF9F9" transform="translate(437,231)"/>
<path d="M0 0 C0.66 0 1.32 0 2 0 C3.344 4.858 3.178 7.333 0.75 11.812 C-1.026 14.847 -1.994 15.996 -5 18 C-5.671 10.754 -3.581 6.242 0 0 Z M-3 11 C-2 14 -2 14 -2 14 Z " fill="#F9FAF8" transform="translate(282,231)"/>
<path d="M0 0 C0 2.64 0 5.28 0 8 C-0.784 7.196 -1.567 6.391 -2.375 5.562 C-5.538 2.475 -6.913 1.838 -11.188 1.75 C-15.9 1.826 -18.959 2.526 -23 5 C-24.52 8.052 -24.52 8.052 -25 11 C-26.062 9.125 -26.062 9.125 -27 7 C-25.138 3.277 -22.768 1.631 -18.875 0.312 C-12.575 -1.647 -6.391 -1.649 0 0 Z " fill="#C5DEE1" transform="translate(356,228)"/>
<path d="M0 0 C0.33 0 0.66 0 1 0 C1.462 8.809 1.462 8.809 -0.188 13.062 C-2.39 15.417 -3.832 15.743 -7 16 C-7.842 10.613 -4.914 7.221 -2 3 C-1.34 2.01 -0.68 1.02 0 0 Z " fill="#EDB546" transform="translate(285,237)"/>
<path d="M0 0 C3.017 2.556 4.243 5.384 5.75 9 C6.199 10.052 6.647 11.104 7.109 12.188 C8 15 8 15 7 18 C6.711 17.196 6.423 16.391 6.125 15.562 C5.267 12.867 5.267 12.867 3 12 C3.33 13.65 3.66 15.3 4 17 C1.539 14.539 0.697 12.215 -0.625 9 C-1.071 7.927 -1.517 6.855 -1.977 5.75 C-3 3 -3 3 -3 1 C-2.01 0.67 -1.02 0.34 0 0 Z " fill="#8FB7B9" transform="translate(333,109)"/>
<path d="M0 0 C4.871 4.566 8.892 9.75 13 15 C12.67 15.66 12.34 16.32 12 17 C11.01 16.01 10.02 15.02 9 14 C9.33 15.98 9.66 17.96 10 20 C6.342 16.639 3.822 13.655 2 9 C2.33 8.01 2.66 7.02 3 6 C2.047 4.633 1.046 3.297 0 2 C0 1.34 0 0.68 0 0 Z " fill="#A2C4C5" transform="translate(261,135)"/>
<path d="M0 0 C3.63 0 7.26 0 11 0 C11 1.98 11 3.96 11 6 C7.37 6 3.74 6 0 6 C0 4.02 0 2.04 0 0 Z " fill="#80B4BD" transform="translate(394,277)"/>
<path d="M0 0 C1.65 0 3.3 0 5 0 C7.12 3.534 7.532 6.944 8 11 C6.35 11.33 4.7 11.66 3 12 C2 8 1 4 0 0 Z " fill="#C4DCE0" transform="translate(310,273)"/>
<path d="M0 0 C1.523 2.937 2.801 5.917 4 9 C-4.695 17.069 -4.695 17.069 -9 18 C-11.812 17.625 -11.812 17.625 -14 17 C-13.484 16.752 -12.969 16.505 -12.438 16.25 C-5.408 13.076 -5.408 13.076 0 8 C-0.329 4.944 -0.329 4.944 -1 2 C-0.67 1.34 -0.34 0.68 0 0 Z " fill="#E6F0F1" transform="translate(329,243)"/>
<path d="M0 0 C1.708 1.634 2.935 2.869 4 5 C5.32 4.67 6.64 4.34 8 4 C8 6.97 8 9.94 8 13 C7.34 13 6.68 13 6 13 C5.67 11.68 5.34 10.36 5 9 C3.68 9 2.36 9 1 9 C-0.619 6.428 -1.044 5.323 -0.625 2.25 C-0.419 1.507 -0.212 0.765 0 0 Z " fill="#94BFC7" transform="translate(346,273)"/>
<path d="M0 0 C4.95 0 9.9 0 15 0 C15 1.98 15 3.96 15 6 C14.257 5.361 13.515 4.721 12.75 4.062 C10.006 1.727 10.006 1.727 6 1 C6 8.92 6 16.84 6 25 C5.67 25 5.34 25 5 25 C5 17.41 5 9.82 5 2 C3.35 2 1.7 2 0 2 C0 1.34 0 0.68 0 0 Z " fill="#227D8D" transform="translate(430,228)"/>
<path d="M0 0 C3.07 0.212 4.043 1.043 6.25 3.25 C8.134 6.21 8.391 7.575 8 11 C6.667 10.333 5.333 9.667 4 9 C3.278 8.752 2.556 8.505 1.812 8.25 C0 7 0 7 -0.812 3.938 C-0.874 2.968 -0.936 1.999 -1 1 C-0.67 0.67 -0.34 0.34 0 0 Z " fill="#E4EFF1" transform="translate(418,272)"/>
<path d="M0 0 C0.33 0 0.66 0 1 0 C0.462 5.691 -0.14 11.349 -1 17 C-0.01 17.33 0.98 17.66 2 18 C2 18.66 2 19.32 2 20 C-1.375 19.453 -3.082 18.945 -6 17 C-5.34 17 -4.68 17 -4 17 C-4.041 16.196 -4.082 15.391 -4.125 14.562 C-3.947 9.48 -3.717 3.717 0 0 Z " fill="#EBF2F2" transform="translate(289,210)"/>
<path d="M0 0 C3.409 2.273 3.671 3.278 5 7 C5.652 8.341 6.314 9.677 7 11 C6.34 11 5.68 11 5 11 C5.66 12.65 6.32 14.3 7 16 C3.075 12.299 0.054 8.45 -3 4 C-2.67 3.34 -2.34 2.68 -2 2 C-1.34 2 -0.68 2 0 2 C0 1.34 0 0.68 0 0 Z " fill="#88B3B4" transform="translate(258,131)"/>
<path d="M0 0 C0.33 0.66 0.66 1.32 1 2 C-1.962 3.481 -4.835 3.353 -8.125 3.562 C-9.406 3.646 -10.688 3.73 -12.008 3.816 C-12.995 3.877 -13.983 3.938 -15 4 C-15 4.33 -15 4.66 -15 5 C-16.65 5 -18.3 5 -20 5 C-20 3.68 -20 2.36 -20 1 C-10.1 0.505 -10.1 0.505 0 0 Z " fill="#AFD8DA" transform="translate(284,225)"/>
<path d="M0 0 C-1 2 -1 2 -3.25 3.312 C-7.406 5.863 -10.306 8.958 -13 13 C-13.99 12.67 -14.98 12.34 -16 12 C-15.34 12 -14.68 12 -14 12 C-13.938 11.278 -13.876 10.556 -13.812 9.812 C-12.47 5.165 -9.208 2.863 -5.375 0.125 C-3 -1 -3 -1 0 0 Z " fill="#EFF5F5" transform="translate(309,221)"/>
<path d="M0 0 C0.99 0 1.98 0 3 0 C2.905 0.713 2.809 1.426 2.711 2.16 C2.035 8.003 1.675 12.535 4 18 C6.683 20.261 6.683 20.261 9 19.75 C11.266 18.986 11.266 18.986 14 17 C12.125 20.875 12.125 20.875 11 22 C7.688 21.938 7.688 21.938 4 21 C0.135 16.522 -0.539 12.858 -0.25 7.125 C-0.232 6.437 -0.214 5.748 -0.195 5.039 C-0.149 3.359 -0.077 1.679 0 0 Z " fill="#E5F0F2" transform="translate(367,234)"/>
<path d="M0 0 C2.64 0.33 5.28 0.66 8 1 C8 9.58 8 18.16 8 27 C7.67 27 7.34 27 7 27 C7 19.08 7 11.16 7 3 C4.36 3.66 1.72 4.32 -1 5 C-0.67 3.35 -0.34 1.7 0 0 Z " fill="#C8DEE2" transform="translate(422,227)"/>
<path d="M0 0 C0.33 1.32 0.66 2.64 1 4 C1.904 3.928 2.807 3.856 3.738 3.781 C5.508 3.642 5.508 3.642 7.312 3.5 C8.484 3.407 9.656 3.314 10.863 3.219 C16.716 2.811 16.716 2.811 20 5 C18.478 6.522 17.118 6.13 15 6.133 C14.196 6.134 13.391 6.135 12.562 6.137 C11.717 6.133 10.871 6.129 10 6.125 C9.154 6.129 8.309 6.133 7.438 6.137 C6.633 6.135 5.829 6.134 5 6.133 C4.257 6.132 3.515 6.131 2.75 6.129 C1 6 1 6 0 5 C-0.041 3.334 -0.043 1.666 0 0 Z " fill="#FAFCFC" transform="translate(276,279)"/>
<path d="M0 0 C1.532 0.252 3.053 0.576 4.562 0.938 C5.389 1.132 6.215 1.327 7.066 1.527 C8.024 1.761 8.024 1.761 9 2 C9 4.31 9 6.62 9 9 C7.35 9 5.7 9 4 9 C4 7.02 4 5.04 4 3 C3.34 3 2.68 3 2 3 C2 4.65 2 6.3 2 8 C1.67 8 1.34 8 1 8 C1 6.02 1 4.04 1 2 C0.34 1.67 -0.32 1.34 -1 1 C-0.67 0.67 -0.34 0.34 0 0 Z " fill="#ABCDD3" transform="translate(373,274)"/>
<path d="M0 0 C2 0 2 0 3.5 1.438 C3.995 1.953 4.49 2.469 5 3 C7.957 4.478 10.742 4.06 14 4 C12.68 3.34 11.36 2.68 10 2 C12.64 2 15.28 2 18 2 C18.33 3.32 18.66 4.64 19 6 C15.419 7.791 11.661 7.407 7.832 6.469 C2.458 4.668 2.458 4.668 0.5 1.812 C0.335 1.214 0.17 0.616 0 0 Z " fill="#E2F1F2" transform="translate(372,259)"/>
<path d="M0 0 C0.99 0.33 1.98 0.66 3 1 C3.249 3.269 3.473 5.54 3.688 7.812 C3.815 9.077 3.943 10.342 4.074 11.645 C4 15 4 15 2.52 16.699 C2.018 17.128 1.517 17.558 1 18 C1 19.32 1 20.64 1 22 C-1.97 22 -4.94 22 -8 22 C-7.01 21.34 -6.02 20.68 -5 20 C-0.352 15.765 -0.352 15.765 1.133 9.844 C1.13 9.07 1.128 8.297 1.125 7.5 C1.128 6.727 1.13 5.953 1.133 5.156 C1.081 2.816 1.081 2.816 0 0 Z " fill="#BEE0E1" transform="translate(293,234)"/>
<path d="M0 0 C0 2.64 0 5.28 0 8 C-0.49 7.202 -0.98 6.404 -1.484 5.582 C-4.778 2.201 -7.757 2.017 -12.25 1.688 C-12.995 1.615 -13.74 1.542 -14.508 1.467 C-16.337 1.291 -18.168 1.143 -20 1 C-20 0.67 -20 0.34 -20 0 C-17.042 -0.194 -14.084 -0.381 -11.125 -0.562 C-10.283 -0.619 -9.441 -0.675 -8.574 -0.732 C-7.769 -0.781 -6.963 -0.829 -6.133 -0.879 C-5.017 -0.95 -5.017 -0.95 -3.879 -1.022 C-2 -1 -2 -1 0 0 Z " fill="#ABCFD4" transform="translate(416,228)"/>
<path d="M0 0 C0.33 1.32 0.66 2.64 1 4 C1.66 3.01 2.32 2.02 3 1 C3.99 0.67 4.98 0.34 6 0 C6 1.98 6 3.96 6 6 C4.742 6.021 3.484 6.041 2.188 6.062 C1.48 6.074 0.772 6.086 0.043 6.098 C-2 6 -2 6 -5 5 C-5 3.68 -5 2.36 -5 1 C-3 0 -3 0 0 0 Z " fill="#1D7989" transform="translate(329,277)"/>
<path d="M0 0 C0.33 0.99 0.66 1.98 1 3 C0.01 4.98 -0.98 6.96 -2 9 C-6.95 9 -11.9 9 -17 9 C-17 8.01 -17 7.02 -17 6 C-15.344 5.618 -13.675 5.286 -12 5 C-11.67 5.33 -11.34 5.66 -11 6 C-9.485 6.232 -7.962 6.412 -6.438 6.562 C-5.611 6.646 -4.785 6.73 -3.934 6.816 C-3.296 6.877 -2.657 6.938 -2 7 C-2 5.35 -2 3.7 -2 2 C-1.34 2 -0.68 2 0 2 C0 1.34 0 0.68 0 0 Z " fill="#F9FBFC" transform="translate(338,276)"/>
<path d="M0 0 C2.625 0.375 2.625 0.375 5 1 C5.33 2.32 5.66 3.64 6 5 C5.01 5.33 4.02 5.66 3 6 C2.301 7.316 1.633 8.65 1 10 C0.01 10.495 0.01 10.495 -1 11 C-1.222 9.544 -1.427 8.085 -1.625 6.625 C-1.741 5.813 -1.857 5.001 -1.977 4.164 C-1.984 3.45 -1.992 2.736 -2 2 C-1.34 1.34 -0.68 0.68 0 0 Z " fill="#A6CAD0" transform="translate(278,272)"/>
<path d="M0 0 C1.32 0.33 2.64 0.66 4 1 C4 3.31 4 5.62 4 8 C1.69 8 -0.62 8 -3 8 C-3 6.02 -3 4.04 -3 2 C-2.01 2 -1.02 2 0 2 C0 1.34 0 0.68 0 0 Z " fill="#6CA8B2" transform="translate(409,275)"/>
<path d="M0 0 C-1 2 -1 2 -3.004 2.887 C-8.849 4.716 -12.987 5.225 -19 4 C-19 3.67 -19 3.34 -19 3 C-16.398 2.302 -13.794 1.617 -11.188 0.938 C-10.081 0.639 -10.081 0.639 -8.951 0.334 C-3.34 -1.113 -3.34 -1.113 0 0 Z " fill="#E9F1F1" transform="translate(239,274)"/>
<path d="M0 0 C0.688 0.052 1.377 0.104 2.086 0.158 C3.766 0.287 5.446 0.424 7.125 0.562 C6.795 1.223 6.465 1.882 6.125 2.562 C3.354 2.616 0.584 2.656 -2.188 2.688 C-2.973 2.704 -3.759 2.721 -4.568 2.738 C-5.326 2.745 -6.083 2.751 -6.863 2.758 C-7.908 2.774 -7.908 2.774 -8.974 2.79 C-10.875 2.562 -10.875 2.562 -13.875 0.562 C-9.146 -0.432 -4.782 -0.403 0 0 Z " fill="#FDFEFE" transform="translate(377.875,282.4375)"/>
<path d="M0 0 C2.31 0.33 4.62 0.66 7 1 C5.35 4.3 3.7 7.6 2 11 C1.67 11 1.34 11 1 11 C0.67 7.37 0.34 3.74 0 0 Z " fill="#6AA5A7" transform="translate(276,229)"/>
<path d="M0 0 C1.025 2.05 2.034 4.08 2.938 6.188 C3.934 8.344 3.934 8.344 7 9 C6.67 9.99 6.34 10.98 6 12 C4.02 11.01 2.04 10.02 0 9 C0 9.66 0 10.32 0 11 C-1.32 11 -2.64 11 -4 11 C-4 10.01 -4 9.02 -4 8 C-2.68 8 -1.36 8 0 8 C0 5.36 0 2.72 0 0 Z " fill="#F5F9FA" transform="translate(344,274)"/>
<path d="M0 0 C0.66 0 1.32 0 2 0 C3 3 3 3 2.215 5.121 C-0.593 10.212 -2.846 13.243 -8 16 C-7.013 13.873 -6.056 12.068 -4.562 10.25 C-2.336 7.043 -1.289 3.682 0 0 Z " fill="#7DACAE" transform="translate(336,199)"/>
<path d="M0 0 C0.99 0 1.98 0 3 0 C3.195 2.051 3.391 4.102 3.586 6.152 C3.723 6.762 3.859 7.372 4 8 C4.66 8.33 5.32 8.66 6 9 C6 13.62 6 18.24 6 23 C5.34 22.67 4.68 22.34 4 22 C4 18.7 4 15.4 4 12 C2.68 11.67 1.36 11.34 0 11 C0.66 11 1.32 11 2 11 C1.859 9.541 1.712 8.083 1.562 6.625 C1.481 5.813 1.4 5.001 1.316 4.164 C1.109 1.957 1.109 1.957 0 0 Z " fill="#DDEBEE" transform="translate(355,227)"/>
<path d="M0 0 C1.65 0 3.3 0 5 0 C6 2 6 2 5.062 5.125 C4.712 6.074 4.361 7.022 4 8 C1.062 7.625 1.062 7.625 -2 7 C-2.33 6.34 -2.66 5.68 -3 5 C-2.34 5 -1.68 5 -1 5 C-0.67 4.34 -0.34 3.68 0 3 C0.33 3.66 0.66 4.32 1 5 C1.33 3.68 1.66 2.36 2 1 C1.34 0.67 0.68 0.34 0 0 Z " fill="#EAF2F4" transform="translate(439,276)"/>
<path d="M0 0 C0.33 0 0.66 0 1 0 C1 2.64 1 5.28 1 8 C1.99 7.67 2.98 7.34 4 7 C4.33 6.01 4.66 5.02 5 4 C7.062 3.312 7.062 3.312 9 3 C9 4.65 9 6.3 9 8 C9.66 8.33 10.32 8.66 11 9 C7.37 9 3.74 9 0 9 C0 6.03 0 3.06 0 0 Z " fill="#318593" transform="translate(278,274)"/>
<path d="M0 0 C0.33 0 0.66 0 1 0 C1.66 3.96 2.32 7.92 3 12 C3.66 12 4.32 12 5 12 C5.33 13.98 5.66 15.96 6 18 C5.01 17.67 4.02 17.34 3 17 C2.67 17.66 2.34 18.32 2 19 C0.05 12.54 -0.223 6.728 0 0 Z " fill="#96BCBD" transform="translate(247,104)"/>
<path d="M0 0 C0.33 0.99 0.66 1.98 1 3 C0.381 3.577 -0.238 4.155 -0.875 4.75 C-2.813 6.802 -3.9 8.434 -5 11 C-5.99 10.67 -6.98 10.34 -8 10 C-7.938 7.812 -7.938 7.812 -7 5 C-4.828 3.068 -2.474 1.518 0 0 Z " fill="#247376" transform="translate(300,221)"/>
<path d="M0 0 C0.99 0 1.98 0 3 0 C4.039 3.118 4.115 5.275 4.098 8.543 C4.094 9.616 4.091 10.689 4.088 11.795 C4.08 12.914 4.071 14.034 4.062 15.188 C4.058 16.319 4.053 17.45 4.049 18.615 C4.037 21.41 4.021 24.205 4 27 C3.67 27 3.34 27 3 27 C2.98 26.324 2.96 25.648 2.94 24.952 C2.845 21.884 2.735 18.817 2.625 15.75 C2.579 14.155 2.579 14.155 2.531 12.527 C2.493 11.503 2.454 10.478 2.414 9.422 C2.383 8.479 2.351 7.537 2.319 6.565 C1.994 3.952 1.323 2.256 0 0 Z " fill="#CEE2E6" transform="translate(393,228)"/>
<path d="M0 0 C0.928 0.082 1.856 0.165 2.812 0.25 C-3.153 9.065 -3.153 9.065 -8.188 10.25 C-7.404 9.487 -6.62 8.724 -5.812 7.938 C-3.115 5.341 -3.115 5.341 -1.188 2.25 C-2.837 2.91 -4.488 3.57 -6.188 4.25 C-4.364 1.009 -3.825 0.3 0 0 Z " fill="#FDF7EB" transform="translate(267.1875,257.75)"/>
<path d="M0 0 C0.66 1.32 1.32 2.64 2 4 C-0.31 5.98 -2.62 7.96 -5 10 C-5.33 9.34 -5.66 8.68 -6 8 C-2.25 2.25 -2.25 2.25 0 0 Z " fill="#237375" transform="translate(328,247)"/>
<path d="M0 0 C1.195 3.586 0.745 4.197 -0.812 7.5 C-1.348 8.66 -1.348 8.66 -1.895 9.844 C-3 12 -3 12 -5 15 C-5.66 14.67 -6.32 14.34 -7 14 C-4.69 9.38 -2.38 4.76 0 0 Z " fill="#F6F9FA" transform="translate(342,194)"/>
<path d="M0 0 C2.31 0.33 4.62 0.66 7 1 C7 2.65 7 4.3 7 6 C4.36 5.34 1.72 4.68 -1 4 C-0.67 2.68 -0.34 1.36 0 0 Z " fill="#81B4BD" transform="translate(434,276)"/>
<path d="M0 0 C0.33 0.66 0.66 1.32 1 2 C0.67 2.66 0.34 3.32 0 4 C3.96 4 7.92 4 12 4 C12 3.34 12 2.68 12 2 C12.99 2.33 13.98 2.66 15 3 C15 3.66 15 4.32 15 5 C9.06 5 3.12 5 -3 5 C-1 1 -1 1 0 0 Z " fill="#F9FCFC" transform="translate(428,253)"/>
<path d="M0 0 C-1.952 1.197 -3.912 2.382 -5.875 3.562 C-6.966 4.224 -8.056 4.885 -9.18 5.566 C-10.576 6.276 -10.576 6.276 -12 7 C-12.66 6.67 -13.32 6.34 -14 6 C-10.338 1.752 -5.681 -1.894 0 0 Z " fill="#EFF5F5" transform="translate(273,82)"/>
<path d="M0 0 C1.458 -0.054 2.916 -0.093 4.375 -0.125 C5.187 -0.148 5.999 -0.171 6.836 -0.195 C9 0 9 0 11 2 C11.125 5.625 11.125 5.625 11 9 C9.68 9.33 8.36 9.66 7 10 C7 9.34 7 8.68 7 8 C7.66 8 8.32 8 9 8 C8.67 6.02 8.34 4.04 8 2 C5.36 1.67 2.72 1.34 0 1 C0 0.67 0 0.34 0 0 Z " fill="#F8FCFC" transform="translate(437,227)"/>
<path d="M0 0 C0.33 0.66 0.66 1.32 1 2 C0.408 2.121 -0.183 2.242 -0.793 2.367 C-5.038 3.267 -9.024 4.205 -13 6 C-13 5.01 -13 4.02 -13 3 C-4.571 -0.429 -4.571 -0.429 0 0 Z " fill="#217174" transform="translate(314,217)"/>
<path d="M0 0 C0.99 0 1.98 0 3 0 C2.67 2.31 2.34 4.62 2 7 C0.35 7 -1.3 7 -3 7 C-3.33 6.01 -3.66 5.02 -4 4 C-2.68 4 -1.36 4 0 4 C-0.33 3.01 -0.66 2.02 -1 1 C-0.67 0.67 -0.34 0.34 0 0 Z " fill="#C7DEE2" transform="translate(431,276)"/>
<path d="M0 0 C1.65 0.33 3.3 0.66 5 1 C4.67 1.66 4.34 2.32 4 3 C3.01 2.34 2.02 1.68 1 1 C0.897 1.763 0.794 2.526 0.688 3.312 C-0.047 6.184 -0.672 7.23 -3 9 C-3.66 9 -4.32 9 -5 9 C-5 7.35 -5 5.7 -5 4 C-4.041 3.845 -4.041 3.845 -3.062 3.688 C-2.382 3.461 -1.701 3.234 -1 3 C-0.67 2.01 -0.34 1.02 0 0 Z " fill="#F4F8F9" transform="translate(299,273)"/>
<path d="M0 0 C4.29 0.33 8.58 0.66 13 1 C13 3.31 13 5.62 13 8 C12.01 6.824 12.01 6.824 11 5.625 C7.263 2.355 4.816 1.898 0 1 C0 0.67 0 0.34 0 0 Z " fill="#267F8E" transform="translate(343,228)"/>
<path d="M0 0 C1.129 0.933 2.253 1.871 3.375 2.812 C4.001 3.335 4.628 3.857 5.273 4.395 C7 6 7 6 9 9 C6 9 6 9 3.438 6.688 C1 4 1 4 -1 1 C-0.67 0.67 -0.34 0.34 0 0 Z " fill="#277578" transform="translate(316,89)"/>
<path d="M0 0 C1.32 0 2.64 0 4 0 C4.124 0.619 4.248 1.238 4.375 1.875 C4.872 4.191 4.872 4.191 7 6 C4.69 6 2.38 6 0 6 C0 4.02 0 2.04 0 0 Z " fill="#2B8190" transform="translate(394,277)"/>
<path d="M0 0 C4.95 0 9.9 0 15 0 C15 1.98 15 3.96 15 6 C14.381 5.361 13.762 4.721 13.125 4.062 C8.867 1.252 5.006 1.194 0 1 C0 0.67 0 0.34 0 0 Z " fill="#599DA9" transform="translate(430,228)"/>
<path d="M0 0 C1.65 0 3.3 0 5 0 C5 2.97 5 5.94 5 9 C4.34 7.68 3.68 6.36 3 5 C2.01 4.67 1.02 4.34 0 4 C0 2.68 0 1.36 0 0 Z " fill="#4D95A2" transform="translate(355,277)"/>
<path d="M0 0 C0.66 0 1.32 0 2 0 C2 1.65 2 3.3 2 5 C-2.29 5 -6.58 5 -11 5 C-10.67 4.34 -10.34 3.68 -10 3 C-7.982 3.098 -5.964 3.195 -3.945 3.293 C-3.303 3.196 -2.661 3.1 -2 3 C-1.34 2.01 -0.68 1.02 0 0 Z " fill="#277F8E" transform="translate(415,251)"/>
<path d="M0 0 C-0.634 0.388 -1.268 0.776 -1.922 1.176 C-4.51 3.447 -4.727 4.832 -5.25 8.188 C-5.4 9.089 -5.549 9.99 -5.703 10.918 C-5.801 11.605 -5.899 12.292 -6 13 C-6.33 13 -6.66 13 -7 13 C-7.027 11.208 -7.046 9.417 -7.062 7.625 C-7.074 6.627 -7.086 5.63 -7.098 4.602 C-7 2 -7 2 -6 0 C-3 -1 -3 -1 0 0 Z " fill="#E4F3F4" transform="translate(345,232)"/>
<path d="M0 0 C-2.782 3.273 -6.28 4.964 -10 7 C-8.071 1.361 -6.015 -0.325 0 0 Z " fill="#67A5B0" transform="translate(371,229)"/>
<path d="M0 0 C2.717 0.367 4.611 0.727 6.875 2.312 C7.432 3.148 7.432 3.148 8 4 C7.57 6.105 7.57 6.105 7 8 C5.83 6.857 4.664 5.711 3.5 4.562 C2.85 3.924 2.201 3.286 1.531 2.629 C0 1 0 1 0 0 Z " fill="#79AFB9" transform="translate(418,274)"/>
<path d="M0 0 C0.615 0.189 1.23 0.379 1.863 0.574 C0.744 1.58 -0.383 2.579 -1.512 3.574 C-2.451 4.41 -2.451 4.41 -3.41 5.262 C-5.137 6.574 -5.137 6.574 -7.137 6.574 C-6.762 3.855 -6.295 2.732 -4.324 0.762 C-2.137 -0.426 -2.137 -0.426 0 0 Z " fill="#F5D698" transform="translate(307.13671875,225.42578125)"/>
<path d="M0 0 C2.993 1.098 3.846 1.677 5.25 4.625 C5.498 5.409 5.745 6.192 6 7 C4.35 6.67 2.7 6.34 1 6 C0.67 4.02 0.34 2.04 0 0 Z " fill="#46898B" transform="translate(327,103)"/>
<path d="M0 0 C2.64 0.33 5.28 0.66 8 1 C7 3 7 3 5.152 3.633 C4.421 3.795 3.691 3.958 2.938 4.125 C2.204 4.293 1.471 4.46 0.715 4.633 C0.149 4.754 -0.417 4.875 -1 5 C-0.67 3.35 -0.34 1.7 0 0 Z " fill="#9CC6CC" transform="translate(422,227)"/>
<path d="M0 0 C-0.33 0.66 -0.66 1.32 -1 2 C-2.458 2.054 -3.916 2.093 -5.375 2.125 C-6.187 2.148 -6.999 2.171 -7.836 2.195 C-10 2 -10 2 -12 0 C-10.564 -0.196 -9.126 -0.381 -7.688 -0.562 C-6.887 -0.667 -6.086 -0.771 -5.262 -0.879 C-3 -1 -3 -1 0 0 Z " fill="#FEFCF9" transform="translate(318,252)"/>
<path d="M0 0 C2.566 3.849 2.551 6.435 3 11 C2.34 11 1.68 11 1 11 C0.637 9.544 0.285 8.085 -0.062 6.625 C-0.358 5.407 -0.358 5.407 -0.66 4.164 C-1 2 -1 2 0 0 Z " fill="#377F81" transform="translate(341,131)"/>
<path d="M0 0 C0.66 0.66 1.32 1.32 2 2 C-6.571 3.429 -6.571 3.429 -10 1 C-3.514 -1.506 -3.514 -1.506 0 0 Z " fill="#71A4A6" transform="translate(275,79)"/>
<path d="M0 0 C3.161 1.37 3.993 1.989 6 5 C5.67 5.99 5.34 6.98 5 8 C4.546 7.526 4.092 7.051 3.625 6.562 C2.067 4.91 2.067 4.91 0 4 C0 2.68 0 1.36 0 0 Z " fill="#D8E7EA" transform="translate(300,274)"/>
<path d="M0 0 C2.438 0.688 2.438 0.688 5 2 C5.812 4.625 5.812 4.625 6 7 C3.532 5.848 1.952 4.952 0 3 C0 2.01 0 1.02 0 0 Z " fill="#6FA3A5" transform="translate(155,255)"/>
<path d="M0 0 C0.99 0 1.98 0 3 0 C2.34 4.95 1.68 9.9 1 15 C0.67 15 0.34 15 0 15 C0 10.05 0 5.1 0 0 Z " fill="#EAF6F6" transform="translate(367,234)"/>
<path d="M0 0 C0 1.65 0 3.3 0 5 C-1.65 5 -3.3 5 -5 5 C-5 3.68 -5 2.36 -5 1 C-3 0 -3 0 0 0 Z " fill="#569BA7" transform="translate(329,277)"/>
<path d="M0 0 C0.66 0.33 1.32 0.66 2 1 C-1.446 5.8 -1.446 5.8 -4.25 6.812 C-5.116 6.905 -5.116 6.905 -6 7 C-4.771 3.312 -3.061 2.276 0 0 Z " fill="#F4F8F8" transform="translate(262,258)"/>
<path d="M0 0 C0.66 0.99 1.32 1.98 2 3 C2.99 3.33 3.98 3.66 5 4 C5 4.66 5 5.32 5 6 C1.625 5.453 -0.082 4.945 -3 3 C-2.34 3 -1.68 3 -1 3 C-0.67 2.01 -0.34 1.02 0 0 Z " fill="#E8F5F5" transform="translate(286,224)"/>
<path d="M0 0 C1.875 0.25 1.875 0.25 4 1 C5.25 3.062 5.25 3.062 6 5 C5.01 5 4.02 5 3 5 C2.67 4.34 2.34 3.68 2 3 C1.67 3.66 1.34 4.32 1 5 C0.34 4.67 -0.32 4.34 -1 4 C-0.67 2.68 -0.34 1.36 0 0 Z " fill="#157485" transform="translate(300,278)"/>
<path d="M0 0 C0 0.66 0 1.32 0 2 C-0.66 2 -1.32 2 -2 2 C-2 2.99 -2 3.98 -2 5 C-2.99 5.33 -3.98 5.66 -5 6 C-5 4.35 -5 2.7 -5 1 C-2 0 -2 0 0 0 Z " fill="#F8FBFB" transform="translate(372,276)"/>
<path d="M0 0 C-0.66 0.66 -1.32 1.32 -2 2 C-4.729 1.967 -7.297 1.436 -10 1 C-10 0.67 -10 0.34 -10 0 C-6.337 -0.749 -3.576 -1.238 0 0 Z " fill="#DAE7E7" transform="translate(230,277)"/>
<path d="M0 0 C-1.098 2.993 -1.677 3.846 -4.625 5.25 C-5.409 5.498 -6.192 5.745 -7 6 C-5.525 2.597 -4.144 0 0 0 Z " fill="#F0F6F6" transform="translate(256,264)"/>
<path d="M0 0 C0.33 0.99 0.66 1.98 1 3 C-1.97 3 -4.94 3 -8 3 C-3.5 0 -3.5 0 0 0 Z " fill="#D9CF9B" transform="translate(293,253)"/>
<path d="M0 0 C0.66 0 1.32 0 2 0 C2 2.31 2 4.62 2 7 C1.01 6.67 0.02 6.34 -1 6 C-0.67 4.02 -0.34 2.04 0 0 Z " fill="#2F8593" transform="translate(408,238)"/>
<path d="M0 0 C1.65 0 3.3 0 5 0 C5 2.31 5 4.62 5 7 C1.125 2.25 1.125 2.25 0 0 Z " fill="#26808E" transform="translate(411,229)"/>
<path d="M0 0 C0.99 0 1.98 0 3 0 C3 1.32 3 2.64 3 4 C1.68 4 0.36 4 -1 4 C-0.67 2.68 -0.34 1.36 0 0 Z " fill="#F5F9F9" transform="translate(417,281)"/>
<path d="M0 0 C0.99 0.33 1.98 0.66 3 1 C3 1.66 3 2.32 3 3 C2.01 3 1.02 3 0 3 C0 2.01 0 1.02 0 0 Z " fill="#FFFFFF" transform="translate(426,273)"/>
</svg>